<?xml version="1.0" encoding="utf-8"?>
<!-- Generator: Adobe Illustrator 15.0.0, SVG Export Plug-In . SVG Version: 6.00 Build 0)  -->
<!DOCTYPE svg PUBLIC "-//W3C//DTD SVG 1.1//EN" "http://www.w3.org/Graphics/SVG/1.1/DTD/svg11.dtd">
<svg version="1.1" id="Layer_1" xmlns="http://www.w3.org/2000/svg" xmlns:xlink="http://www.w3.org/1999/xlink" x="0px" y="0px"
	 width="170px" height="54px" viewBox="190 43.5 170 54" enable-background="new 190 43.5 170 54" xml:space="preserve">
<g>
	<path fill="#333333" d="M232.577,71.977c-0.026-5.814-0.849-11.35-2.692-16.721c-0.242-0.704-0.652-1.121-1.363-1.371
		c-4.359-1.521-8.84-2.406-13.444-2.687c-6.731-0.411-13.31,0.381-19.706,2.584c-0.751,0.26-1.199,0.695-1.46,1.461
		c-1.528,4.484-2.349,9.095-2.583,13.824c-0.324,6.585,0.49,13.005,2.607,19.256c0.239,0.706,0.653,1.134,1.362,1.377
		c4.185,1.444,8.484,2.28,12.896,2.581c6.953,0.477,13.729-0.363,20.322-2.659c0.701-0.245,1.125-0.654,1.373-1.364
		C231.758,82.938,232.545,77.448,232.577,71.977z"/>
	<g>
		<polygon fill="#F4D11E" points="201.26,72.988 206.945,67.032 204.852,65.025 197.241,72.994 204.855,80.887 206.948,78.881 		"/>
		<path fill="#F4D11E" d="M217,59.532h-2.971l-7.193,24.438h2.969L217,59.532z"/>
		<polygon fill="#F4D11E" points="218.982,65.025 216.889,67.032 222.575,72.988 216.887,78.881 218.979,80.887 226.593,72.994 		
			"/>
	</g>
</g>
<path fill="#333333" d="M253.631,59.785c-0.766-0.808-1.693-1.458-2.756-1.925c-1.066-0.473-2.261-0.71-3.545-0.71
	c-1.279,0-2.497,0.236-3.62,0.702c-1.119,0.464-2.105,1.105-2.933,1.906c-0.828,0.8-1.493,1.758-1.977,2.848
	c-0.486,1.097-0.731,2.286-0.731,3.533v0.914h3.883v-0.914c0-0.721,0.137-1.378,0.417-2.008c0.281-0.628,0.672-1.177,1.161-1.634
	c0.5-0.467,1.083-0.845,1.731-1.124c0.63-0.272,1.326-0.408,2.068-0.408c1.485,0,2.639,0.481,3.523,1.472
	c0.914,1.021,1.357,2.233,1.357,3.702v2.75c-0.427,0.163-0.954,0.355-1.574,0.578c-0.961,0.343-1.951,0.708-2.975,1.091
	c-1.013,0.38-1.965,0.729-2.853,1.05c-0.882,0.317-1.529,0.562-1.923,0.731c-3.528,1.264-5.315,3.375-5.315,6.275v1.685
	c0,1.249,0.247,2.438,0.732,3.536c0.481,1.086,1.146,2.044,1.976,2.848c0.827,0.798,1.812,1.438,2.934,1.904
	c1.123,0.463,2.341,0.702,3.619,0.702c1.371,0,2.675-0.282,3.874-0.839c0.531-0.247,1.033-0.537,1.505-0.861v1.398h3.881V66.138
	c0-1.234-0.222-2.414-0.657-3.504C254.996,61.546,254.391,60.587,253.631,59.785z M246.832,85.474c-0.748,0-1.457-0.139-2.108-0.413
	c-0.658-0.274-1.233-0.648-1.712-1.109c-0.474-0.46-0.856-1.012-1.14-1.646c-0.277-0.62-0.42-1.296-0.42-2.008v-1.685
	c0-0.679,0.242-1.173,0.757-1.562c0.671-0.504,1.365-0.886,2.068-1.139c0.336-0.119,0.879-0.323,1.629-0.604l2.49-0.933
	c0.904-0.339,1.821-0.672,2.725-0.988c0.387-0.136,0.752-0.269,1.09-0.39v7.3c0,0.71-0.142,1.388-0.42,2.01
	c-0.283,0.632-0.667,1.186-1.14,1.644c-0.476,0.461-1.053,0.835-1.713,1.109C248.287,85.335,247.579,85.474,246.832,85.474z
	 M274.69,59.757c-0.828-0.8-1.815-1.44-2.935-1.906c-1.123-0.466-2.342-0.702-3.62-0.702c-1.369,0-2.668,0.269-3.86,0.801
	c-0.536,0.24-1.043,0.526-1.518,0.857V43.952h-3.884v45.035h3.884v-1.396c0.472,0.323,0.973,0.611,1.505,0.858
	c1.196,0.555,2.499,0.839,3.873,0.839c1.277,0,2.495-0.239,3.62-0.702c1.12-0.466,2.107-1.106,2.935-1.904
	c0.828-0.804,1.492-1.764,1.975-2.848c0.485-1.096,0.731-2.287,0.731-3.536v-14.16c0-1.247-0.246-2.436-0.731-3.533
	C276.182,61.517,275.518,60.56,274.69,59.757z M268.136,85.474c-0.747,0-1.457-0.139-2.109-0.413
	c-0.658-0.274-1.233-0.648-1.71-1.109c-0.476-0.46-0.858-1.012-1.141-1.646c-0.277-0.62-0.418-1.296-0.418-2.008v-14.16
	c0-0.722,0.137-1.378,0.419-2.009c0.282-0.632,0.667-1.185,1.14-1.644c0.475-0.46,1.051-0.833,1.71-1.108
	c0.654-0.273,1.364-0.412,2.109-0.412s1.455,0.139,2.108,0.41c0.661,0.278,1.236,0.652,1.713,1.11
	c0.471,0.457,0.854,1.011,1.14,1.644c0.281,0.633,0.418,1.288,0.418,2.009v14.16c0,0.71-0.14,1.388-0.418,2.01
	c-0.284,0.632-0.668,1.186-1.14,1.644c-0.479,0.461-1.055,0.835-1.713,1.109C269.592,85.335,268.885,85.474,268.136,85.474z
	 M296.806,62.605c0.486,1.097,0.732,2.286,0.732,3.533v0.914h-3.882v-0.914c0-0.721-0.138-1.376-0.42-2.009
	c-0.284-0.633-0.668-1.187-1.14-1.644c-0.476-0.458-1.049-0.832-1.713-1.11c-0.651-0.271-1.361-0.41-2.106-0.41
	c-0.748,0-1.454,0.139-2.109,0.412c-0.659,0.275-1.234,0.648-1.71,1.108c-0.473,0.459-0.856,1.012-1.141,1.645
	c-0.281,0.63-0.419,1.287-0.419,2.008v14.16c0,0.712,0.142,1.388,0.419,2.008c0.283,0.634,0.667,1.186,1.141,1.646
	c0.479,0.461,1.052,0.835,1.71,1.109c0.653,0.274,1.359,0.413,2.109,0.413c0.746,0,1.457-0.139,2.106-0.413
	c0.661-0.274,1.235-0.648,1.713-1.109c0.473-0.458,0.856-1.012,1.142-1.644c0.277-0.622,0.418-1.3,0.418-2.01v-0.912h3.882v0.912
	c0,1.249-0.246,2.44-0.732,3.536c-0.481,1.084-1.146,2.044-1.976,2.848c-0.827,0.798-1.812,1.438-2.933,1.904
	c-1.125,0.463-2.343,0.702-3.62,0.702s-2.496-0.239-3.621-0.702c-1.117-0.466-2.104-1.106-2.932-1.904
	c-0.83-0.804-1.494-1.762-1.976-2.848c-0.485-1.096-0.732-2.287-0.732-3.536v-14.16c0-1.247,0.247-2.436,0.732-3.533
	c0.482-1.09,1.148-2.047,1.976-2.848c0.827-0.801,1.814-1.441,2.932-1.906c1.124-0.466,2.342-0.702,3.621-0.702
	c1.278,0,2.496,0.236,3.62,0.702c1.119,0.465,2.105,1.105,2.933,1.906C295.659,60.56,296.323,61.517,296.806,62.605z
	 M316.252,60.558c-0.82-0.918-1.796-1.63-2.921-2.133c-1.123-0.502-2.336-0.752-3.632-0.752c-1.211,0-2.347,0.219-3.405,0.657
	c-1.06,0.44-1.979,1.036-2.757,1.792c-0.779,0.751-1.395,1.641-1.849,2.665c-0.454,1.026-0.682,2.124-0.682,3.295v14.747
	c0,1.173,0.228,2.272,0.682,3.295c0.454,1.027,1.069,1.914,1.849,2.669c0.778,0.752,1.697,1.348,2.757,1.789
	c1.059,0.438,2.194,0.658,3.405,0.658c1.296,0,2.509-0.263,3.632-0.785c1.125-0.521,2.101-1.224,2.921-2.103v2.573h2.142v-8.097
	V66.082V43.927h-2.142V60.558z M316.252,80.829c0,0.88-0.175,1.708-0.52,2.48c-0.346,0.774-0.811,1.443-1.396,2.008
	c-0.583,0.565-1.274,1.019-2.074,1.351c-0.802,0.334-1.655,0.5-2.563,0.5s-1.762-0.166-2.562-0.5
	c-0.802-0.332-1.494-0.785-2.077-1.351c-0.582-0.564-1.048-1.233-1.394-2.008c-0.35-0.772-0.521-1.601-0.521-2.48V66.082
	c0-0.878,0.171-1.705,0.521-2.479c0.346-0.774,0.812-1.445,1.394-2.01c0.583-0.564,1.275-1.014,2.077-1.349
	c0.8-0.333,1.653-0.501,2.562-0.501s1.762,0.168,2.563,0.501c0.8,0.334,1.491,0.785,2.074,1.349c0.585,0.565,1.05,1.236,1.396,2.01
	c0.345,0.774,0.52,1.6,0.52,2.479V80.829z M335.854,60.169c-0.778-0.756-1.697-1.351-2.756-1.792
	c-1.062-0.438-2.197-0.657-3.408-0.657c-1.21,0-2.348,0.219-3.405,0.657c-1.062,0.44-1.979,1.036-2.758,1.792
	c-0.779,0.751-1.395,1.641-1.849,2.665c-0.454,1.026-0.682,2.124-0.682,3.295v14.747c0,1.173,0.228,2.272,0.682,3.295
	c0.454,1.027,1.069,1.914,1.849,2.669c0.779,0.752,1.696,1.348,2.758,1.789c1.058,0.438,2.195,0.658,3.405,0.658
	c1.211,0,2.347-0.22,3.408-0.658c1.059-0.441,1.978-1.037,2.756-1.789c0.777-0.755,1.395-1.642,1.85-2.669
	c0.453-1.022,0.681-2.122,0.681-3.295h-2.141c0,0.88-0.176,1.708-0.521,2.48c-0.346,0.774-0.811,1.443-1.395,2.008
	c-0.584,0.565-1.274,1.019-2.075,1.351c-0.802,0.334-1.655,0.5-2.563,0.5c-0.906,0-1.762-0.166-2.562-0.5
	c-0.802-0.332-1.493-0.785-2.078-1.351c-0.582-0.564-1.047-1.233-1.393-2.008c-0.348-0.772-0.52-1.601-0.52-2.48v-5.333
	c0.562-0.169,1.34-0.439,2.337-0.818c0.993-0.375,2.02-0.751,3.081-1.129c1.057-0.374,2.042-0.739,2.951-1.099
	c0.909-0.354,1.556-0.595,1.945-0.72c3.287-1.171,4.932-3.054,4.932-5.648v-0.062c0-1.13-0.228-2.207-0.681-3.233
	C337.249,61.81,336.632,60.92,335.854,60.169z M335.076,68.515c-0.779,0.587-1.558,1.025-2.336,1.319
	c-0.347,0.124-0.919,0.335-1.719,0.626c-0.802,0.293-1.676,0.608-2.628,0.944c-0.952,0.332-1.905,0.678-2.854,1.034
	c-0.953,0.355-1.753,0.658-2.4,0.908V66.13c0-0.878,0.172-1.705,0.52-2.479c0.346-0.774,0.811-1.445,1.393-2.01
	c0.585-0.564,1.276-1.014,2.078-1.349c0.8-0.333,1.655-0.501,2.562-0.501c0.908,0,1.762,0.168,2.563,0.501
	c0.801,0.334,1.491,0.785,2.075,1.349c0.584,0.565,1.049,1.225,1.395,1.978c0.345,0.753,0.521,1.569,0.521,2.448
	C336.244,67.113,335.854,67.929,335.076,68.515z M358.609,58.034l-8.436,30.939h-0.842h-1.363h-0.843l-8.434-30.939h2.205
	l7.72,28.43l7.721-28.43H358.609z"/>
</svg>
