<?xml version="1.0" encoding="utf-8"?>
<!-- Generator: Adobe Illustrator 15.0.0, SVG Export Plug-In . SVG Version: 6.00 Build 0)  -->
<!DOCTYPE svg PUBLIC "-//W3C//DTD SVG 1.1//EN" "http://www.w3.org/Graphics/SVG/1.1/DTD/svg11.dtd">
<svg version="1.1" id="Layer_1" xmlns="http://www.w3.org/2000/svg" xmlns:xlink="http://www.w3.org/1999/xlink" x="0px" y="0px"
	 width="32px" height="32px" viewBox="0 0 32 32" enable-background="new 0 0 32 32" xml:space="preserve">
<path fill="#808080" d="M16,0.395c-8.836,0-16,7.165-16,16c0,7.07,4.584,13.069,10.941,15.185c0.801,0.146,1.094-0.348,1.094-0.771
	c0-0.381-0.014-1.642-0.021-2.979c-4.451,0.968-5.391-1.889-5.391-1.889c-0.729-1.85-1.775-2.34-1.775-2.34
	c-1.453-0.994,0.109-0.974,0.109-0.974c1.605,0.113,2.451,1.647,2.451,1.647c1.428,2.445,3.744,1.738,4.656,1.33
	c0.143-1.035,0.559-1.739,1.016-2.141c-3.553-0.404-7.289-1.777-7.289-7.906c0-1.748,0.625-3.175,1.648-4.295
	C7.274,10.86,6.727,9.233,7.596,7.03c0,0,1.344-0.429,4.4,1.64C13.272,8.314,14.641,8.137,16,8.131
	c1.359,0.005,2.73,0.184,4.007,0.539c3.056-2.069,4.396-1.64,4.396-1.64c0.871,2.203,0.322,3.831,0.156,4.234
	c1.025,1.119,1.646,2.547,1.646,4.295c0,6.145-3.742,7.498-7.305,7.895c0.574,0.497,1.084,1.47,1.084,2.963
	c0,2.142-0.021,3.865-0.021,4.392c0,0.426,0.289,0.926,1.101,0.769C27.42,29.458,32,23.464,32,16.395C32,7.56,24.836,0.395,16,0.395
	z"/>
</svg>
