<?xml version="1.0" encoding="utf-8"?>
<!-- Generator: Adobe Illustrator 15.0.0, SVG Export Plug-In . SVG Version: 6.00 Build 0)  -->
<!DOCTYPE svg PUBLIC "-//W3C//DTD SVG 1.1//EN" "http://www.w3.org/Graphics/SVG/1.1/DTD/svg11.dtd">
<svg version="1.1" id="Layer_1" xmlns="http://www.w3.org/2000/svg" xmlns:xlink="http://www.w3.org/1999/xlink" x="0px" y="0px"
	 width="456px" height="141px" viewBox="0 0 456 141" enable-background="new 0 0 456 141" xml:space="preserve">
<g>
	<path fill="#F5F5F5" d="M116.745,79.417c-0.068-15.258-2.227-29.784-7.064-43.878c-0.636-1.848-1.712-2.942-3.577-3.598
		c-11.44-3.99-23.198-6.314-35.282-7.05c-17.665-1.079-34.927,1-51.713,6.781c-1.971,0.681-3.147,1.822-3.832,3.833
		C11.266,47.271,9.113,59.372,8.499,71.78c-0.851,17.283,1.286,34.131,6.842,50.535c0.628,1.853,1.715,2.976,3.575,3.612
		c10.981,3.791,22.265,5.985,33.841,6.774c18.247,1.25,36.029-0.954,53.33-6.979c1.84-0.644,2.953-1.717,3.604-3.58
		C114.596,108.182,116.661,93.776,116.745,79.417z"/>
	<g>
		<polygon fill="#F4D11E" points="34.562,82.072 49.482,66.442 43.987,61.176 24.016,82.088 43.997,102.8 49.489,97.536 		"/>
		<path fill="#F4D11E" d="M75.867,46.761h-7.796l-18.876,64.132h7.791L75.867,46.761z"/>
		<polygon fill="#F4D11E" points="81.07,61.176 75.576,66.442 90.498,82.072 75.57,97.536 81.06,102.8 101.042,82.088 		"/>
	</g>
</g>
<path fill="#F5F5F5" d="M171.455,47.327c-2.014-2.124-4.455-3.831-7.248-5.062c-2.803-1.241-5.943-1.866-9.321-1.866
	c-3.362,0-6.564,0.619-9.517,1.844c-2.943,1.221-5.539,2.905-7.714,5.013c-2.177,2.102-3.692,4.621-4.965,7.485
	c-1.277,2.886-1.69,6.01-1.69,9.29V66h10v-1.969c0-1.896,0.232-3.625,0.969-5.282c0.74-1.649,1.702-3.094,2.988-4.294
	c1.315-1.229,2.818-2.223,4.522-2.955c1.657-0.714,3.47-1.072,5.422-1.072c3.906,0,7.071,1.262,9.397,3.867
	c2.403,2.685,3.701,5.872,3.701,9.735v7.231c-1,0.427-2.647,0.937-4.279,1.518c-2.525,0.902-5.199,1.862-7.891,2.869
	c-2.663,1-5.202,1.916-7.535,2.76c-2.319,0.834-4.153,1.479-5.187,1.925C133.829,83.655,129,89.207,129,96.832v4.43
	c0,3.285,0.763,6.409,2.039,9.299c1.266,2.855,3.068,5.375,5.251,7.488c2.175,2.097,4.795,3.781,7.743,5.006
	c2.952,1.218,6.168,1.847,9.529,1.847c3.604,0,7.181-0.741,10.333-2.205c1.397-0.649,2.104-1.413,4.104-2.265V124h10V64.031
	c0-3.248-0.62-6.348-1.766-9.214C175.082,51.958,173.451,49.434,171.455,47.327z M153.577,114.872c-1.967,0-3.831-0.364-5.544-1.087
	c-1.731-0.721-3.242-1.705-4.5-2.916c-1.246-1.211-2.468-2.661-3.213-4.327c-0.729-1.632-1.32-3.407-1.32-5.28v-4.43
	c0-1.784,0.853-3.083,2.206-4.104c1.765-1.324,3.698-2.329,5.546-2.994c0.884-0.313,2.365-0.851,4.337-1.589l6.573-2.453
	c2.379-0.89,4.944-1.766,7.32-2.6c1.017-0.354,2.018-0.704,3.018-1.022v19.192c0,1.869-0.512,3.648-1.244,5.284
	c-0.743,1.662-1.822,3.118-3.065,4.323c-1.25,1.211-2.805,2.195-4.541,2.916C157.439,114.508,155.541,114.872,153.577,114.872z
	 M224.827,47.256c-2.178-2.108-4.773-3.792-7.716-5.013c-2.952-1.225-6.158-1.844-9.519-1.844c-3.601,0-7.24,0.705-10.377,2.105
	c-1.409,0.633-2.216,1.382-4.216,2.255V6h-10v118h10v-3.562c2,0.851,2.784,1.609,4.184,2.259c3.145,1.457,6.684,2.205,10.297,2.205
	c3.357,0,6.615-0.629,9.574-1.847c2.945-1.225,5.568-2.909,7.744-5.006c2.177-2.113,3.967-4.637,5.234-7.488
	c1.277-2.881,1.967-6.014,1.967-9.299v-37.23c0-3.28-0.676-6.404-1.953-9.29C228.777,51.883,227.003,49.365,224.827,47.256z
	 M207.593,114.872c-1.966,0-3.831-0.364-5.547-1.087c-1.731-0.721-3.242-1.705-4.496-2.916c-1.25-1.211-2.481-2.661-3.226-4.327
	c-0.729-1.632-1.324-3.407-1.324-5.28v-37.23c0-1.9,0.585-3.625,1.328-5.283c0.741-1.662,1.865-3.118,3.109-4.325
	c1.246-1.207,2.817-2.187,4.552-2.912c1.72-0.719,3.616-1.082,5.575-1.082s3.841,0.363,5.558,1.078
	c1.738,0.729,3.258,1.716,4.512,2.916c1.237,1.203,2.382,2.661,3.131,4.325c0.74,1.664,1.235,3.387,1.235,5.283v37.23
	c0,1.869-0.498,3.648-1.231,5.284c-0.747,1.662-1.822,3.118-3.062,4.323c-1.258,1.211-2.807,2.195-4.538,2.916
	C211.454,114.508,209.562,114.872,207.593,114.872z M284.025,54.741c1.278,2.886,1.975,6.01,1.975,9.29V66h-10v-1.969
	c0-1.896-0.517-3.62-1.258-5.283c-0.747-1.665-1.915-3.122-3.154-4.325c-1.25-1.2-2.763-2.187-4.51-2.916
	c-1.712-0.714-3.593-1.078-5.552-1.078c-1.966,0-3.847,0.363-5.571,1.082c-1.734,0.725-3.298,1.705-4.547,2.912
	c-1.245,1.207-2.355,2.663-3.104,4.327c-0.738,1.657-1.305,3.386-1.305,5.282v37.23c0,1.873,0.578,3.648,1.307,5.28
	c0.746,1.666,1.963,3.116,3.209,4.327c1.258,1.211,2.77,2.195,4.501,2.916c1.717,0.723,3.581,1.087,5.554,1.087
	c1.963,0,3.851-0.364,5.559-1.087c1.739-0.721,3.287-1.705,4.542-2.916c1.243-1.205,2.328-2.661,3.078-4.323
	c0.729-1.636,1.251-3.415,1.251-5.284V99h10v2.262c0,3.285-0.698,6.418-1.977,9.299c-1.266,2.852-3.065,5.375-5.244,7.488
	c-2.175,2.097-4.769,3.781-7.714,5.006c-2.958,1.218-6.166,1.847-9.526,1.847c-3.358,0-6.575-0.629-9.533-1.847
	c-2.937-1.225-5.561-2.909-7.732-5.006c-2.184-2.113-3.979-4.633-5.247-7.488c-1.275-2.881-2.026-6.014-2.026-9.299v-37.23
	c0-3.28,0.751-6.404,2.026-9.29c1.271-2.864,3.121-5.384,5.297-7.485c2.173-2.11,4.771-3.792,7.708-5.013
	c2.956-1.225,6.158-1.844,9.521-1.844c3.361,0,6.563,0.619,9.52,1.844c2.943,1.221,5.536,2.905,7.711,5.013
	C280.961,49.365,282.759,51.883,284.025,54.741z M336,49.357c-2-2.414-4.668-4.284-7.625-5.608
	c-2.953-1.319-6.116-1.976-9.521-1.976c-3.187,0-6.158,0.577-8.941,1.728c-2.787,1.157-5.196,2.722-7.242,4.708
	c-2.05,1.979-3.676,4.315-4.869,7.01c-1.192,2.698-1.801,5.583-1.801,8.665v38.777c0,3.083,0.611,5.974,1.805,8.662
	c1.193,2.7,2.816,5.032,4.866,7.018c2.046,1.977,4.465,3.543,7.252,4.704c2.783,1.152,5.771,1.729,8.957,1.729
	c3.405,0,6.541-0.689,9.494-2.063c2.958-1.369,5.626-3.217,7.626-5.528V124h6v-21.339V63.884V6h-6V49.357z M336,102.661
	c0,2.312-0.404,4.489-1.312,6.521c-0.908,2.037-2.104,3.794-3.643,5.279c-1.531,1.486-3.337,2.679-5.44,3.552
	c-2.107,0.878-4.345,1.313-6.73,1.313c-2.39,0-4.63-0.436-6.732-1.313c-2.109-0.873-3.93-2.065-5.463-3.552
	c-1.528-1.485-2.578-3.242-3.487-5.279c-0.919-2.031-1.191-4.208-1.191-6.521V63.884c0-2.312,0.273-4.482,1.192-6.516
	c0.909-2.034,2.048-3.802,3.575-5.285c1.533-1.484,3.312-2.667,5.421-3.547c2.103-0.876,4.324-1.317,6.714-1.317
	c2.386,0,4.619,0.441,6.727,1.317c2.104,0.88,3.918,2.062,5.449,3.547c1.539,1.483,2.703,3.25,3.612,5.285
	c0.907,2.034,1.31,4.204,1.31,6.516V102.661z M387.651,48.338c-2.046-1.987-4.461-3.554-7.247-4.711
	c-2.789-1.154-5.777-1.73-8.96-1.73c-3.182,0-6.174,0.576-8.954,1.73c-2.791,1.157-5.203,2.724-7.252,4.711
	c-2.05,1.972-3.458,4.314-4.653,7.006C349.392,58.045,349,60.928,349,64.01v38.774c0,3.084,0.392,5.975,1.585,8.665
	c1.195,2.701,2.708,5.032,4.757,7.019c2.049,1.977,4.409,3.542,7.2,4.702c2.78,1.153,5.747,1.731,8.929,1.731
	c3.183,0,6.157-0.578,8.946-1.731c2.786-1.16,5.195-2.726,7.241-4.702c2.044-1.986,3.663-4.21,4.859-6.911
	c1.19-2.689,1.786-5.557,1.786-8.557h-5.627c0,2-0.464,4.385-1.369,6.414c-0.91,2.037-2.132,3.742-3.667,5.227
	c-1.536,1.486-3.352,2.651-5.456,3.525c-2.109,0.878-4.354,1.302-6.74,1.302c-2.384,0-4.634-0.444-6.737-1.322
	c-2.107-0.874-3.925-2.069-5.464-3.556c-1.529-1.484-2.86-3.245-3.769-5.281c-0.916-2.029-1.475-4.211-1.475-6.524V88.763
	c2-0.445,3.631-1.156,6.254-2.151c2.609-0.986,5.363-1.976,8.155-2.968c2.777-0.984,5.395-1.943,7.786-2.89
	c2.391-0.929,3.951-1.564,4.977-1.894C389.816,75.781,394,70.833,394,64.01v-0.166c0-2.971-0.447-5.8-1.637-8.5
	C391.166,52.652,389.695,50.311,387.651,48.338z M385.605,70.28c-2.05,1.543-4.096,2.693-6.144,3.469
	c-0.911,0.323-2.415,0.882-4.518,1.643c-2.11,0.77-4.406,1.601-6.91,2.482c-2.504,0.875-5.12,1.784-7.614,2.721
	c-2.506,0.936-4.42,1.73-6.42,2.388V64.01c0-2.31,0.559-4.482,1.475-6.519c0.908-2.036,2.186-3.798,3.715-5.284
	c1.539-1.48,3.383-2.667,5.49-3.545c2.104-0.878,4.367-1.321,6.751-1.321c2.387,0,4.638,0.443,6.747,1.321
	c2.104,0.878,3.924,2.064,5.46,3.545c1.535,1.486,2.758,3.22,3.668,5.201c0.905,1.979,1.37,4.123,1.37,6.437
	C388.676,66.595,387.651,68.741,385.605,70.28z M447.482,43l-22.179,81h-2.215h-3.585h-2.216l-22.175-81h5.798l20.298,74.752
	L441.51,43H447.482z"/>
</svg>
