<?xml version="1.0" encoding="utf-8"?>
<!-- Generator: Adobe Illustrator 15.0.0, SVG Export Plug-In . SVG Version: 6.00 Build 0)  -->
<!DOCTYPE svg PUBLIC "-//W3C//DTD SVG 1.1//EN" "http://www.w3.org/Graphics/SVG/1.1/DTD/svg11.dtd">
<svg version="1.1" id="Layer_1" xmlns="http://www.w3.org/2000/svg" xmlns:xlink="http://www.w3.org/1999/xlink" x="0px" y="0px"
	 width="22px" height="22px" viewBox="389 289 22 22" enable-background="new 389 289 22 22" xml:space="preserve">
<path fill="#FDCE0B" d="M402.834,300.001l7.081-7.081c0.778-0.781,0.778-2.051,0-2.832c-0.779-0.784-2.051-0.784-2.83,0L400,297.167
	l-7.081-7.078c-0.781-0.784-2.051-0.784-2.832,0c-0.784,0.781-0.784,2.05,0,2.832l7.078,7.081l-7.078,7.084
	c-0.784,0.779-0.784,2.051,0,2.83c0.781,0.778,2.051,0.778,2.832,0l7.081-7.081l7.084,7.081c0.779,0.778,2.051,0.778,2.83,0
	c0.778-0.779,0.778-2.051,0-2.83L402.834,300.001z"/>
</svg>
