<?xml version="1.0" encoding="utf-8"?>
<!-- Generator: Adobe Illustrator 15.0.0, SVG Export Plug-In . SVG Version: 6.00 Build 0)  -->
<!DOCTYPE svg PUBLIC "-//W3C//DTD SVG 1.1//EN" "http://www.w3.org/Graphics/SVG/1.1/DTD/svg11.dtd">
<svg version="1.1" id="Layer_1" xmlns="http://www.w3.org/2000/svg" xmlns:xlink="http://www.w3.org/1999/xlink" x="0px" y="0px"
	 width="32px" height="32px" viewBox="0 0 32 32" enable-background="new 0 0 32 32" xml:space="preserve">
<path fill="#3FA9F5" d="M31.998,6.075c-1.176,0.521-2.443,0.875-3.771,1.034c1.355-0.813,2.396-2.099,2.891-3.631
	c-1.271,0.751-2.678,1.299-4.17,1.591c-1.197-1.275-2.904-2.072-4.795-2.072c-3.625,0-6.563,2.939-6.563,6.564
	c0,0.516,0.06,1.017,0.171,1.496C10.305,10.784,5.466,8.17,2.229,4.198c-0.564,0.97-0.89,2.097-0.89,3.301
	c0,2.278,1.158,4.287,2.921,5.465c-1.076-0.033-2.089-0.328-2.974-0.819c-0.002,0.026-0.002,0.054-0.002,0.081
	c0,3.182,2.264,5.834,5.266,6.437C6,18.812,5.419,18.895,4.821,18.895c-0.422,0-0.834-0.043-1.234-0.121
	c0.836,2.609,3.26,4.509,6.133,4.562c-2.246,1.763-5.078,2.812-8.154,2.812c-0.528,0-1.051-0.031-1.563-0.095
	c2.904,1.863,6.354,2.951,10.062,2.951c12.076,0,18.681-10.004,18.681-18.68c0-0.285-0.008-0.568-0.021-0.849
	C30.004,8.547,31.117,7.393,31.998,6.075L31.998,6.075z"/>
</svg>
