<?xml version="1.0" encoding="utf-8"?>
<!-- Generator: Adobe Illustrator 15.0.0, SVG Export Plug-In . SVG Version: 6.00 Build 0)  -->
<!DOCTYPE svg PUBLIC "-//W3C//DTD SVG 1.1//EN" "http://www.w3.org/Graphics/SVG/1.1/DTD/svg11.dtd">
<svg version="1.1" id="Layer_2" xmlns="http://www.w3.org/2000/svg" xmlns:xlink="http://www.w3.org/1999/xlink" x="0px" y="0px"
	 width="170px" height="54px" viewBox="0 0 170 54" enable-background="new 0 0 170 54" xml:space="preserve">
<path fill="#FDCE0B" d="M130.846,42.967V32.94h2.338c1.338,0,2.379,0.359,3.123,1.078c0.979,0.939,1.469,2.253,1.469,3.941
	c0,1.662-0.641,2.946-1.469,3.852c-0.705,0.77-1.725,1.155-3.123,1.155H130.846z M133.553,40.563
	c0.971-0.047,1.455-0.883,1.455-2.506c0-0.801-0.123-1.434-0.369-1.896c-0.248-0.468-0.666-0.701-1.086-0.701V40.563z
	 M140.625,42.967V32.94h5.033v2.402h-2.324v1.279h2.084v2.402h-2.084v1.539h2.324v2.403H140.625z M153.301,42.967h-2.76
	l-2.299-10.026h2.844l0.494,3.318c0.186,1.096,0.305,1.887,0.447,3.221c0.068-0.648,0.396-2.615,0.496-3.189l0.57-3.35h2.941
	L153.301,42.967z M47.713,39.334h-6.524l-0.469-2.967h-4.253l-0.515,2.967h-6.524l5.616-23.371h7.72L47.713,39.334z M39.978,31.448
	c0,0-0.439-3.401-0.469-3.664c-0.021-0.222-0.711-6.146-0.711-6.146c-0.021,0.213-0.848,6.146-0.848,6.146l-0.636,3.664H39.978z
	 M56.364,39.334V15.963h7.341c2.745,0,4.778,0.605,6.1,1.816c1.342,1.241,2.013,2.846,2.013,4.813c0,2.927-1.453,4.511-4.359,4.753
	c1.655,0.242,2.869,0.787,3.64,1.635c0.772,0.848,1.158,2.069,1.158,3.663c0,2.008-0.651,3.623-1.953,4.844
	c-1.292,1.231-2.992,1.847-5.101,1.847H56.364z M62.676,24.863H63.1c0.757,0,1.355-0.176,1.793-0.529
	c0.439-0.354,0.659-0.848,0.659-1.484c0-0.665-0.244-1.166-0.659-1.505c-0.429-0.349-1.04-0.523-1.793-0.522
	c-0.071,0-0.272-0.01-0.424,0V24.863z M62.676,34.415c0.121,0.01,0.484,0,0.545,0c0.787,0,1.416-0.213,1.884-0.638
	c0.47-0.425,0.704-0.995,0.704-1.71s-0.234-1.274-0.704-1.679c-0.469-0.403-1.112-0.606-1.93-0.606h-0.5V34.415z M94.911,32.22
	l-0.272,6.334c-1.403,0.521-2.75,0.78-3.859,0.78c-2.614,0-4.814-0.926-6.6-2.777c-1.998-2.075-2.997-5.013-2.997-8.813
	c0-3.556,0.938-6.411,2.815-8.564c1.877-2.144,4.384-3.216,7.523-3.216c1.019,0,2.059,0.184,3.118,0.551l0.272,6.457
	c-0.938-0.938-2.296-1.407-3.284-1.407c-1.293,0-2.18,0.546-2.906,1.636c-0.727,1.101-1.09,2.621-1.09,4.562
	c0,0.94,0.09,1.781,0.271,2.521s0.441,1.365,0.78,1.875c0.338,0.511,0.754,0.9,1.249,1.171c0.494,0.271,1.059,0.405,1.695,0.405
	C92.717,33.733,93.811,33.229,94.911,32.22z M142.516,10.418v4.471l-4.387,3.107l4.363,3.127v4.439l-8.119-5.711v-3.742
	L142.516,10.418z M144.365,25.562v-4.471l4.381-3.117l-4.363-3.127v-4.43l8.127,5.701v3.742L144.365,25.562z M0,0v8v37.923v8h170v-8
	V8V0H0z M116.882,8v37.923H7.961V8H116.882z M162,45.923h-37.118V8H162V45.923z"/>
</svg>
