<?xml version="1.0" encoding="utf-8"?>
<!-- Generator: Adobe Illustrator 15.0.0, SVG Export Plug-In . SVG Version: 6.00 Build 0)  -->
<!DOCTYPE svg PUBLIC "-//W3C//DTD SVG 1.1//EN" "http://www.w3.org/Graphics/SVG/1.1/DTD/svg11.dtd">
<svg version="1.1" id="Layer_1" xmlns="http://www.w3.org/2000/svg" xmlns:xlink="http://www.w3.org/1999/xlink" x="0px" y="0px"
	 width="170px" height="141px" viewBox="0 0 170 141" enable-background="new 0 0 170 141" xml:space="preserve">
<path fill="#F5F5F5" d="M48.661,27.611h-14.46L23.683,71.389h12.221l0.964-5.558h7.967l0.879,5.558h12.22L48.661,27.611z
	 M38.455,56.617l1.19-6.863c0,0,1.55-11.113,1.588-11.511c0,0,1.294,11.096,1.333,11.511c0.056,0.492,0.879,6.863,0.879,6.863
	H38.455z M101.737,51.995c-1.444-1.587-3.718-2.608-6.818-3.062c5.443-0.454,8.166-3.421,8.166-8.902
	c0-3.687-1.257-6.691-3.77-9.017c-2.478-2.268-6.286-3.403-11.428-3.403h-13.75v43.777h16.558c3.949,0,7.137-1.153,9.554-3.46
	c2.44-2.286,3.659-5.312,3.659-9.073C103.908,55.871,103.185,53.583,101.737,51.995z M85.96,36.714c0.285-0.018,0.661,0,0.793,0
	c1.413-0.002,2.559,0.325,3.36,0.979c0.778,0.634,1.233,1.573,1.234,2.819c0,1.192-0.411,2.118-1.234,2.78
	c-0.82,0.662-1.939,0.991-3.36,0.991H85.96V36.714z M90.512,60.98c-0.88,0.796-2.057,1.195-3.531,1.195
	c-0.113,0-0.794,0.018-1.021,0v-8.678h0.936c1.532,0,2.736,0.38,3.616,1.136c0.88,0.757,1.317,1.805,1.317,3.145
	C91.829,59.116,91.392,60.184,90.512,60.98z M146.34,58.062l-0.511,11.864c-2.628,0.974-5.15,1.462-7.229,1.462
	c-4.896,0-9.018-1.734-12.361-5.203c-3.743-3.887-5.615-9.389-5.615-16.509c0-6.66,1.76-12.009,5.275-16.042
	c3.516-4.015,8.211-6.024,14.091-6.024c1.907,0,3.855,0.345,5.84,1.032l0.511,12.094c-1.758-1.756-4.301-2.635-6.152-2.635
	c-2.421,0-4.082,1.022-5.443,3.063c-1.361,2.062-2.041,4.91-2.041,8.544c0,1.762,0.168,3.337,0.509,4.724
	c0.341,1.386,0.827,2.557,1.462,3.512c0.633,0.957,1.411,1.687,2.339,2.193c0.926,0.506,1.983,0.759,3.175,0.759
	C142.23,60.897,144.277,59.954,146.34,58.062z M56.05,107.9c-1.248-1.207-2.994-1.809-5.238-1.809h-3.921v16.816h3.921
	c2.346,0,4.056-0.646,5.238-1.938c1.389-1.518,2.463-3.672,2.463-6.461C58.514,111.678,57.691,109.475,56.05,107.9z M51.431,118.877
	v-8.561c0.705,0,1.405,0.393,1.821,1.178c0.413,0.775,0.619,1.838,0.619,3.18C53.872,117.396,53.06,118.799,51.431,118.877z
	 M63.293,122.908v-16.816h8.442v4.029h-3.898v2.145h3.496v4.031h-3.496v2.58h3.898v4.031H63.293z M84.555,122.908h-4.629
	l-3.856-16.816h4.77l0.829,5.566c0.311,1.836,0.511,3.164,0.75,5.4c0.115-1.086,0.665-4.387,0.832-5.35l0.957-5.617h4.934
	L84.555,122.908z M112.187,104.1v6.141l-6.024,4.27l5.991,4.295v6.096l-11.15-7.844v-5.141L112.187,104.1z M114.726,124.9v-6.139
	l6.018-4.283l-5.991-4.293V104.1l11.161,7.832v5.139L114.726,124.9z M170,0H-0.224v11l0.098,119l-0.098,11H170v-11V11V0z M10.874,11
	h148.179v77H10.874V11z M10.874,130V99h148.179v31H10.874z"/>
</svg>
